<svg width="50" height="50" viewBox="0 0 50 50" fill="none" xmlns="http://www.w3.org/2000/svg">
<g id="time-svgrepo-com 1">
<path id="Vector" d="M47.9163 25.0026C47.9163 37.6591 37.6561 47.9193 24.9997 47.9193C12.3432 47.9193 2.08301 37.6591 2.08301 25.0026C2.08301 12.3461 12.3432 2.08594 24.9997 2.08594C37.6561 2.08594 47.9163 12.3461 47.9163 25.0026ZM6.2639 25.0026C6.2639 35.3501 14.6522 43.7384 24.9997 43.7384C35.3472 43.7384 43.7355 35.3501 43.7355 25.0026C43.7355 14.6551 35.3472 6.26683 24.9997 6.26683C14.6522 6.26683 6.2639 14.6551 6.2639 25.0026Z" fill="#FFA034"/>
<path id="Vector_2" d="M25.0003 10.4141C23.8497 10.4141 22.917 11.3468 22.917 12.4974V25.9697C22.917 25.9697 22.917 26.5128 23.181 26.9214C23.3576 27.2678 23.633 27.5689 23.9949 27.7778L33.6195 33.3347C34.6159 33.9099 35.8901 33.5684 36.4653 32.572C37.0405 31.5755 36.6993 30.3014 35.7028 29.7261L27.0837 24.7499V12.4974C27.0837 11.3468 26.151 10.4141 25.0003 10.4141Z" fill="#FFA034"/>
</g>
</svg>
