<svg width="50" height="50" viewBox="0 0 50 50" fill="none" xmlns="http://www.w3.org/2000/svg">
<g id="train-svgrepo-com 1">
<path id="Vector" d="M22.9166 24.9974C22.9166 26.148 21.9839 27.0807 20.8333 27.0807C19.6827 27.0807 18.75 26.148 18.75 24.9974C18.75 23.8468 19.6827 22.9141 20.8333 22.9141C21.9839 22.9141 22.9166 23.8468 22.9166 24.9974Z" fill="#FFA034"/>
<path id="Vector_2" d="M29.1663 27.0807C30.317 27.0807 31.2497 26.148 31.2497 24.9974C31.2497 23.8468 30.317 22.9141 29.1663 22.9141C28.0157 22.9141 27.083 23.8468 27.083 24.9974C27.083 26.148 28.0157 27.0807 29.1663 27.0807Z" fill="#FFA034"/>
<path id="Vector_3" fill-rule="evenodd" clip-rule="evenodd" d="M39.5832 8.33594C39.5832 4.88417 36.7851 2.08594 33.3332 2.08594H16.6666C13.2148 2.08594 10.4166 4.88417 10.4166 8.33594V27.0859C10.4166 30.1836 12.6702 32.7551 15.6274 33.2499L10.585 45.0155C10.1318 46.073 10.6216 47.2978 11.6792 47.7511C12.7368 48.2043 13.9615 47.7145 14.4148 46.6568L14.7666 45.8359H35.2332L35.5851 46.6568C36.0382 47.7145 37.263 48.2043 38.3205 47.7511C39.3782 47.2978 39.868 46.073 39.4149 45.0155L34.3724 33.2499C37.3296 32.7551 39.5832 30.1836 39.5832 27.0859V8.33594ZM33.4476 41.6693H16.5523L17.4451 39.5859H32.5546L33.4476 41.6693ZM30.7688 35.4193H19.2309L20.1237 33.3359H29.8761L30.7688 35.4193ZM35.4165 8.33594C35.4165 7.18535 34.4838 6.2526 33.3332 6.2526H27.0832V16.6693H35.4165V8.33594ZM22.9165 16.6693V6.2526H16.6666C15.516 6.2526 14.5832 7.18533 14.5832 8.33594V16.6693H22.9165ZM14.5832 27.0859V20.8359H35.4165V27.0859C35.4165 28.2366 34.4838 29.1693 33.3332 29.1693H16.6666C15.516 29.1693 14.5832 28.2366 14.5832 27.0859Z" fill="#FFA034"/>
</g>
</svg>
