<svg width="47" height="47" viewBox="0 0 47 47" fill="none" xmlns="http://www.w3.org/2000/svg">
<rect width="47" height="47" rx="23.5" fill="#FFA034"/>
<path d="M12.7197 21.9015C19.4295 18.656 23.9043 16.5159 26.144 15.4814C32.5371 12.5298 33.8645 12.0173 34.7303 12.0002C34.9221 11.996 35.3467 12.0485 35.623 12.2984C35.8557 12.5071 35.9197 12.791 35.9503 12.9898C35.981 13.1886 36.0194 13.6415 35.9887 13.995C35.6434 18.037 34.1433 27.8431 33.3798 32.3692C33.0576 34.283 32.4232 34.9247 31.8068 34.9886C30.4704 35.1249 29.4563 34.009 28.1621 33.0663C26.135 31.5912 24.9905 30.6726 23.0236 29.2344C20.751 27.5719 22.2243 26.6576 23.5198 25.164C23.8587 24.7736 29.7478 18.8263 29.8629 18.2868C29.8757 18.2187 29.8898 17.9674 29.7555 17.8354C29.6212 17.7019 29.423 17.7473 29.2785 17.7842C29.0747 17.8354 25.8384 20.2101 19.5693 24.9085C18.6494 25.6089 17.8173 25.9501 17.073 25.9321C16.2507 25.9122 14.6687 25.4168 13.4947 24.9923C12.0522 24.4712 10.9063 24.1972 11.0061 23.3127C11.0581 22.8527 11.6293 22.3823 12.7197 21.9015Z" fill="#202020"/>
</svg>
