<svg width="47" height="47" viewBox="0 0 47 47" fill="none" xmlns="http://www.w3.org/2000/svg">
<path d="M0 12C0 5.37258 5.37258 0 12 0H35C41.6274 0 47 5.37258 47 12V35C47 41.6274 41.6274 47 35 47H12C5.37258 47 0 41.6274 0 35V12Z" fill="#FFA034"/>
<path fill-rule="evenodd" clip-rule="evenodd" d="M37.3348 15.432C37.5354 14.6552 37.3348 14.0834 36.3742 14.0834H33.2024C32.3953 14.0834 32.0231 14.577 31.8213 15.1219C31.8213 15.1219 30.2082 19.6686 27.9233 22.6219C27.1838 23.4783 26.8479 23.75 26.4443 23.75C26.2426 23.75 25.9393 23.4783 25.9393 22.7002V15.432C25.9393 14.4988 25.7169 14.0834 25.0451 14.0834L21.7422 14C20.424 14.0001 20.424 14 20.424 14.5021C20.424 15.3855 20.3931 16.0153 20.5103 18.502V23.9051C20.5103 25.0901 20.3255 25.305 19.9219 25.305C18.8465 25.305 16.2305 20.7369 14.6778 15.5102C14.377 14.4931 14.0725 14.0834 13.2617 14.0834H10.0875C9.18125 14.0834 9 14.577 9 15.1219C9 16.0921 10.0754 20.9119 14.0084 27.2867C16.6305 31.6399 20.3218 34 23.6846 34C25.7012 34 25.9501 33.4765 25.9501 32.5731V29.2826C25.9501 28.2341 26.1411 28.025 26.7803 28.025C27.2515 28.025 28.0574 28.2981 29.94 30.3965C32.0908 32.8847 32.4448 34 33.6555 34H36.8273C37.7336 34 38.1879 33.4765 37.9269 32.4408C37.6393 31.4108 36.6123 29.9157 35.2505 28.1417C34.511 27.1316 33.4018 26.0433 33.0647 25.4984C32.5946 24.7999 32.7288 24.4884 33.0647 23.8667C33.0647 23.8667 36.9312 17.5702 37.3336 15.432" fill="#202020"/>
</svg>
